# xmcd
#
# Track frame offsets:
#	150
#	12878
#	29964
#	43052
#	59651
#	75227
#	94938
#	110288
#	126195
#	142501
#	159718
#	176474
#	191484
#	208132
#	221708
#
# Disc length: 3205 seconds
#
# Revision: 0
# Processed by: cddbd v1.5.2PL0 Copyright (c) Steve Scherf et al.
# Submitted via: audiograbber 1.83.01
#
DISCID=d20c830f
DTITLE=Various Artist - Chartbuster Karaoke - Hot Country Hits Vol. 6
DYEAR=1900
DGENRE=Karaoke
TTITLE0=Alan Jackson - Little Bitty
TTITLE1=Trisha Yearwood - Everybody Knows
TTITLE2=Gary Allan - Her Man
TTITLE3=Daryl Singletary - Amen Kind of Love
TTITLE4=Mark Wills - High Low and In Between
TTITLE5=Wynona Judd - Somebody to Love You
TTITLE6=Rick Trevino - Running Out of Reasons to Run
TTITLE7=Tracy Lawrence - Is That A Tear
TTITLE8=Toby Keith - Me Too
TTITLE9=Reba McEntire - How Was I To Know
TTITLE10=Travis Tritt - Where Corn Don't Grow
TTITLE11=Terri Clark - Emotional Girl
TTITLE12=Brooks and Dunn - A Man This Lonely
TTITLE13=Neal McCoy - That Woman of Mine
TTITLE14=Shania Twain - God Bless the Child
EXTD=
EXTT0=
EXTT1=
EXTT2=
EXTT3=
EXTT4=
EXTT5=
EXTT6=
EXTT7=
EXTT8=
EXTT9=
EXTT10=
EXTT11=
EXTT12=
EXTT13=
EXTT14=
PLAYORDER=
